REM MD5 6812221ba79111465951162522d2a660
FILE "SuperLite 3in1 Series - Oekaki Puzzle-shuu (Japan).bin" BINARY
  TRACK 01 MODE2/2352
    INDEX 01 00:00:00
  TRACK 02 AUDIO
    INDEX 00 00:17:68
    INDEX 01 00:19:68
  TRACK 03 AUDIO
    INDEX 00 02:32:24
    INDEX 01 02:34:24
  TRACK 04 AUDIO
    INDEX 00 05:42:29
    INDEX 01 05:44:29
  TRACK 05 AUDIO
    INDEX 00 13:53:06
    INDEX 01 13:55:06
  TRACK 06 AUDIO
    INDEX 00 23:58:19
    INDEX 01 24:00:19
REM LEADOUT 32:08:71
